<?xml version="1.0" standalone="no"?>
<!DOCTYPE svg PUBLIC "-//W3C//DTD SVG 20010904//EN"
 "http://www.w3.org/TR/2001/REC-SVG-20010904/DTD/svg10.dtd">
<svg version="1.0" xmlns="http://www.w3.org/2000/svg"
 width="960.000000pt" height="960.000000pt" viewBox="0 0 960.000000 960.000000"
 preserveAspectRatio="xMidYMid meet">
<metadata>
Created by potrace 1.14, written by Peter Selinger 2001-2017
</metadata>
<g transform="translate(0.000000,960.000000) scale(0.100000,-0.100000)"
fill="#000000" stroke="none">
<path d="M300 4463 c0 -2774 1 -3042 16 -3102 54 -215 230 -391 445 -445 60
-15 398 -16 4040 -16 3818 0 3977 1 4044 19 112 29 191 75 276 160 85 85 131
164 160 276 18 67 19 188 19 2845 0 2662 -1 2778 -19 2846 -50 194 -179 338
-376 420 l-70 29 -4267 3 -4268 2 0 -3037z m6093 1239 l27 -12 0 -206 0 -207
-85 7 c-196 16 -275 -57 -296 -273 -6 -54 -9 -119 -7 -142 l3 -44 190 -5 190
-5 0 -210 0 -210 -190 -5 -190 -5 -3 -852 -2 -853 -240 0 -240 0 -2 853 -3
852 -138 3 -137 3 2 212 3 212 133 3 132 3 0 97 c0 288 67 489 210 633 129
130 245 170 475 166 77 -2 152 -8 168 -15z m-2208 -35 c370 -69 608 -236 730
-512 85 -191 102 -480 44 -710 -67 -263 -240 -464 -498 -582 -168 -77 -427
-120 -663 -111 l-128 6 0 -527 c0 -289 -4 -532 -8 -539 -7 -9 -62 -12 -243
-10 l-234 3 -3 1484 c-1 1029 1 1488 8 1495 27 27 855 29 995 3z"/>
<path d="M3743 5253 l-73 -4 0 -529 0 -530 170 0 c199 0 290 15 396 64 125 59
194 138 240 272 23 69 27 95 27 204 -1 100 -5 138 -22 192 -46 143 -156 254
-295 297 -120 37 -217 44 -443 34z"/>
</g>
</svg>
